<svg width="1288" height="1125" viewBox="0 0 1288 1125" fill="none" xmlns="http://www.w3.org/2000/svg">
<path d="M-477.73 637.288C-215.162 700.74 -493.079 888.697 -317.196 1063.68C-156.01 1224.05 219 1009.9 185.597 1409.14C162.728 1682.49 229.64 1798.78 437.808 1899.1" stroke="#56CCF2" stroke-width="0.913867"/>
<path d="M-462.923 625.253C-200.355 688.706 -478.272 876.662 -302.389 1051.65C-141.202 1212.01 233.807 997.862 200.404 1397.11C177.535 1670.45 244.447 1786.74 452.615 1887.07" stroke="#56CCF2" stroke-width="0.913867"/>
<path d="M-448.116 613.218C-185.548 676.671 -463.465 864.627 -287.582 1039.61C-126.395 1199.98 248.615 985.828 215.212 1385.07C192.342 1658.42 259.255 1774.71 467.423 1875.04" stroke="#56CCF2" stroke-width="0.913867"/>
<path d="M-433.308 601.184C-170.741 664.636 -448.658 852.593 -272.775 1027.58C-111.588 1187.94 263.422 973.793 230.019 1373.04C207.15 1646.38 274.062 1762.67 482.23 1863" stroke="#56CCF2" stroke-width="0.913867"/>
<path d="M-418.501 589.149C-155.934 652.602 -433.85 840.558 -257.967 1015.54C-96.7806 1175.91 278.229 961.758 244.826 1361C221.957 1634.35 288.869 1750.64 497.037 1850.97" stroke="#56CCF2" stroke-width="0.913867"/>
<path d="M-403.694 577.114C-141.126 640.567 -419.043 828.523 -243.16 1003.51C-81.9731 1163.87 293.037 949.724 259.634 1348.97C236.764 1622.31 303.677 1738.61 511.844 1838.93" stroke="#56CCF2" stroke-width="0.913867"/>
<path d="M-388.887 565.079C-126.319 628.532 -404.236 816.488 -228.353 991.474C-67.166 1151.84 307.844 937.689 274.441 1336.93C251.571 1610.28 318.484 1726.57 526.652 1826.9" stroke="#56CCF2" stroke-width="0.913867"/>
<path d="M-374.079 553.045C-111.512 616.498 -389.429 804.454 -213.546 979.439C-52.3587 1139.8 322.651 925.654 289.248 1324.9C266.379 1598.24 333.291 1714.54 541.459 1814.86" stroke="#56CCF2" stroke-width="0.913867"/>
<path d="M-359.272 541.01C-96.7042 604.463 -374.621 792.419 -198.738 967.405C-37.5512 1127.77 337.459 913.62 304.055 1312.87C281.186 1586.21 348.099 1702.5 556.266 1802.83" stroke="#56CCF2" stroke-width="0.913867"/>
<path d="M-344.465 528.976C-81.8971 592.428 -359.814 780.385 -183.931 955.37C-22.7441 1115.73 352.266 901.585 318.863 1300.83C295.993 1574.17 362.906 1690.47 571.073 1790.79" stroke="#56CCF2" stroke-width="0.913867"/>
<path d="M-329.658 516.941C-67.0898 580.393 -345.007 768.35 -169.124 943.335C-7.93687 1103.7 367.073 889.55 333.67 1288.8C310.8 1562.14 377.713 1678.43 585.881 1778.76" stroke="#56CCF2" stroke-width="0.913867"/>
<path d="M-314.85 504.906C-52.2823 568.359 -330.199 756.315 -154.316 931.301C6.87063 1091.66 381.88 877.515 348.477 1276.76C325.608 1550.1 392.521 1666.4 600.688 1766.72" stroke="#56CCF2" stroke-width="0.913867"/>
<path d="M-300.043 492.871C-37.4752 556.324 -315.392 744.28 -139.509 919.266C21.6778 1079.63 396.688 865.481 363.284 1264.73C340.415 1538.07 407.328 1654.36 615.495 1754.69" stroke="#56CCF2" stroke-width="0.913867"/>
<path d="M-285.236 480.837C-22.6681 544.29 -300.585 732.246 -124.702 907.231C36.4849 1067.6 411.495 853.446 378.092 1252.69C355.222 1526.03 422.135 1642.33 630.302 1742.65" stroke="#56CCF2" stroke-width="0.913867"/>
<path d="M-270.429 468.802C-7.86096 532.255 -285.778 720.211 -109.895 895.197C51.292 1055.56 426.302 841.412 392.899 1240.66C370.029 1514 436.942 1630.29 645.11 1730.62" stroke="#56CCF2" stroke-width="0.913867"/>
<path d="M-255.621 456.767C6.94678 520.22 -270.97 708.176 -95.0871 883.162C66.0998 1043.53 441.11 829.377 407.706 1228.62C384.837 1501.96 451.75 1618.26 659.917 1718.58" stroke="#56CCF2" stroke-width="0.913867"/>
<path d="M-240.814 444.733C21.7538 508.185 -256.163 696.142 -80.28 871.127C80.9068 1031.49 455.917 817.342 422.513 1216.59C399.644 1489.93 466.557 1606.22 674.724 1706.55" stroke="#56CCF2" stroke-width="0.913867"/>
<path d="M-226.007 432.698C36.561 496.151 -241.356 684.107 -65.4728 859.092C95.714 1019.46 470.724 805.307 437.321 1204.55C414.451 1477.9 481.364 1594.19 689.532 1694.51" stroke="#56CCF2" stroke-width="0.913867"/>
<path d="M-211.199 420.663C51.3684 484.116 -226.548 672.072 -50.6654 847.058C110.521 1007.42 485.531 793.272 452.128 1192.52C429.259 1465.86 496.171 1582.15 704.339 1682.48" stroke="#56CCF2" stroke-width="0.913867"/>
<path d="M-196.392 408.628C66.1754 472.081 -211.741 660.037 -35.8584 835.023C125.328 995.387 500.338 781.238 466.935 1180.48C444.066 1453.83 510.978 1570.12 719.146 1670.45" stroke="#56CCF2" stroke-width="0.913867"/>
</svg>
