<svg width="1411" height="1483" viewBox="0 0 1411 1483" fill="none" xmlns="http://www.w3.org/2000/svg">
<path d="M568.859 -187.073C831.426 -123.62 553.51 64.3365 729.393 239.322C890.579 399.686 1265.59 185.537 1232.19 584.783C1209.32 858.125 1276.23 974.418 1484.4 1074.74" stroke="#56CCF2" stroke-width="0.913867"/>
<path d="M583.666 -199.107C846.234 -135.654 568.317 52.3019 744.2 227.287C905.387 387.652 1280.4 173.502 1246.99 572.748C1224.12 846.09 1291.04 962.384 1499.2 1062.71" stroke="#56CCF2" stroke-width="0.913867"/>
<path d="M598.473 -211.142C861.041 -147.689 583.124 40.2672 759.007 215.253C920.194 375.617 1295.2 161.467 1261.8 560.713C1238.93 834.056 1305.84 950.349 1514.01 1050.68" stroke="#56CCF2" stroke-width="0.913867"/>
<path d="M613.281 -223.177C875.848 -159.724 597.931 28.2324 773.814 203.218C935.001 363.582 1310.01 149.433 1276.61 548.679C1253.74 822.021 1320.65 938.314 1528.82 1038.64" stroke="#56CCF2" stroke-width="0.913867"/>
<path d="M628.088 -235.211C890.655 -171.758 612.739 16.1978 788.622 191.183C949.808 351.548 1324.82 137.398 1291.42 536.644C1268.55 809.986 1335.46 926.28 1543.63 1026.61" stroke="#56CCF2" stroke-width="0.913867"/>
<path d="M642.896 -247.246C905.463 -183.793 627.546 4.16318 803.429 179.149C964.616 339.513 1339.63 125.363 1306.22 524.609C1283.35 797.952 1350.27 914.245 1558.43 1014.57" stroke="#56CCF2" stroke-width="0.913867"/>
<path d="M657.702 -259.281C920.27 -195.828 642.353 -7.87161 818.236 167.114C979.423 327.478 1354.43 113.329 1321.03 512.575C1298.16 785.917 1365.07 902.21 1573.24 1002.54" stroke="#56CCF2" stroke-width="0.913867"/>
<path d="M672.51 -271.315C935.077 -207.862 657.16 -19.9063 833.043 155.079C994.23 315.444 1369.24 101.294 1335.84 500.54C1312.97 773.882 1379.88 890.175 1588.05 990.502" stroke="#56CCF2" stroke-width="0.913867"/>
<path d="M687.317 -283.35C949.885 -219.897 671.968 -31.9409 847.851 143.045C1009.04 303.409 1384.05 89.2593 1350.64 488.505C1327.78 761.847 1394.69 878.141 1602.86 978.467" stroke="#56CCF2" stroke-width="0.913867"/>
<path d="M702.125 -295.385C964.692 -231.932 686.775 -43.9756 862.658 131.01C1023.85 291.374 1398.86 77.2247 1365.45 476.471C1342.58 749.813 1409.5 866.106 1617.66 966.432" stroke="#56CCF2" stroke-width="0.913867"/>
<path d="M716.932 -307.419C979.499 -243.967 701.583 -56.0104 877.466 118.975C1038.65 279.339 1413.66 65.1898 1380.26 464.436C1357.39 737.778 1424.3 854.071 1632.47 954.398" stroke="#56CCF2" stroke-width="0.913867"/>
<path d="M731.739 -319.454C994.307 -256.001 716.39 -68.045 892.273 106.94C1053.46 267.305 1428.47 53.1552 1395.07 452.401C1372.2 725.743 1439.11 842.037 1647.28 942.363" stroke="#56CCF2" stroke-width="0.913867"/>
<path d="M746.546 -331.489C1009.11 -268.036 731.197 -80.0797 907.08 94.9058C1068.27 255.27 1443.28 41.1206 1409.87 440.367C1387 713.709 1453.92 830.002 1662.08 930.328" stroke="#56CCF2" stroke-width="0.913867"/>
<path d="M761.353 -343.523C1023.92 -280.071 746.004 -92.1143 921.887 82.8712C1083.07 243.236 1458.08 29.0859 1424.68 428.332C1401.81 701.674 1468.72 817.967 1676.89 918.294" stroke="#56CCF2" stroke-width="0.913867"/>
<path d="M776.161 -355.558C1038.73 -292.105 760.812 -104.149 936.695 70.8365C1097.88 231.201 1472.89 17.0512 1439.49 416.297C1416.62 689.639 1483.53 805.933 1691.7 906.259" stroke="#56CCF2" stroke-width="0.913867"/>
<path d="M790.968 -367.593C1053.54 -304.14 775.619 -116.184 951.502 58.8018C1112.69 219.166 1487.7 5.01646 1454.3 404.262C1431.43 677.605 1498.34 793.898 1706.51 894.224" stroke="#56CCF2" stroke-width="0.913867"/>
<path d="M805.775 -379.627C1068.34 -316.175 790.426 -128.218 966.309 46.7671C1127.5 207.131 1502.51 -7.01817 1469.1 392.228C1446.23 665.57 1513.15 781.863 1721.31 882.19" stroke="#56CCF2" stroke-width="0.913867"/>
<path d="M820.582 -391.662C1083.15 -328.209 805.233 -140.253 981.116 34.7324C1142.3 195.097 1517.31 -19.0529 1483.91 380.193C1461.04 653.535 1527.95 769.829 1736.12 870.155" stroke="#56CCF2" stroke-width="0.913867"/>
<path d="M835.39 -403.697C1097.96 -340.244 820.041 -152.288 995.924 22.6976C1157.11 183.062 1532.12 -31.0877 1498.72 368.158C1475.85 641.5 1542.76 757.794 1750.93 858.12" stroke="#56CCF2" stroke-width="0.913867"/>
<path d="M850.197 -415.732C1112.76 -352.279 834.848 -164.323 1010.73 10.663C1171.92 171.027 1546.93 -43.1223 1513.52 356.124C1490.65 629.466 1557.57 745.759 1765.74 846.085" stroke="#56CCF2" stroke-width="0.913867"/>
</svg>
