<svg width="23" height="18" viewBox="0 0 23 18" fill="none" xmlns="http://www.w3.org/2000/svg">
<path d="M2.70954 6.80476V15.5195H20.2579V6.80476L11.4837 10.0728L2.70954 6.80476ZM2.70954 2.44737V4.62607L11.4837 7.89411L20.2579 4.62607V2.44737H2.70954ZM2.70954 0.268677H20.2579C20.8397 0.268677 21.3976 0.498217 21.809 0.906802C22.2204 1.31539 22.4515 1.86955 22.4515 2.44737V15.5195C22.4515 16.0974 22.2204 16.6515 21.809 17.0601C21.3976 17.4687 20.8397 17.6982 20.2579 17.6982H2.70954C2.12777 17.6982 1.56984 17.4687 1.15847 17.0601C0.747096 16.6515 0.515991 16.0974 0.515991 15.5195V2.44737C0.515991 1.86955 0.747096 1.31539 1.15847 0.906802C1.56984 0.498217 2.12777 0.268677 2.70954 0.268677Z" fill="#4F4F4F"/>
</svg>
