<svg width="45" height="41" viewBox="0 0 45 41" fill="none" xmlns="http://www.w3.org/2000/svg">
<path d="M43.9928 18.9332H34.2663V17.0549C34.2659 16.7806 34.1177 16.5277 33.8785 16.3933L23.4601 10.5377V7.55663H25.521V8.68973C25.521 9.10969 25.8615 9.4502 26.2814 9.4502H32.4945C32.9144 9.45 33.2547 9.10941 33.2546 8.68944C33.2546 8.60142 33.2392 8.51406 33.2093 8.43117L32.5857 6.65927L33.2169 4.9254C33.3597 4.53043 33.1553 4.09449 32.7603 3.95172C32.6775 3.92177 32.5902 3.90647 32.5021 3.90637H29.6731V2.80369C29.6731 2.38372 29.3326 2.04322 28.9126 2.04322H23.4601V1.11545C23.4601 0.695481 23.1196 0.35498 22.6996 0.35498C22.2796 0.35498 21.9391 0.695481 21.9391 1.11545V10.5377L11.5207 16.3857C11.2815 16.5201 11.1333 16.7729 11.1329 17.0473V18.9256H1.40647C0.986496 18.9256 0.645996 19.2661 0.645996 19.6861V39.58C0.645996 40 0.986496 40.3405 1.40647 40.3405H43.9928C44.4127 40.3405 44.7532 40 44.7532 39.58V19.6937C44.7532 19.2737 44.4127 18.9332 43.9928 18.9332ZM29.6731 6.79616L29.6427 6.76574V5.45773H31.3766L31.0648 6.43113C31.0025 6.60053 31.0025 6.78646 31.0648 6.95586L31.4222 7.92926H27.0419V7.55663H28.9126C29.3326 7.55663 29.6731 7.21613 29.6731 6.79616ZM23.4601 3.56416H28.1522V4.69726V6.03569H23.4601V3.56416ZM11.1329 38.8195H2.16693V20.4542H11.1329V38.8195ZM21.9391 38.8195H17.9467V30.135H21.9391V38.8195ZM27.4525 38.8195H23.4601V30.135H27.4525V38.8195ZM32.7758 38.8195H28.9735V29.3745C28.9735 28.9545 28.633 28.614 28.213 28.614H17.1862C16.7662 28.614 16.4257 28.9545 16.4257 29.3745V38.8195H12.6234V17.5264L22.6996 11.8533L32.7454 17.496L32.7758 19.6861V38.8195ZM43.2323 38.8195H34.2663V20.4542H43.2323V38.8195Z" fill="#157698"/>
</svg>
