<svg width="16" height="25" viewBox="0 0 16 25" fill="none" xmlns="http://www.w3.org/2000/svg">
<path d="M8.06438 0.645264C3.89465 0.645264 0.515991 3.98755 0.515991 8.12755C0.515991 15.2859 8.06438 24.6216 8.06438 24.6216C8.06438 24.6216 15.6128 15.2844 15.6128 8.12755C15.6128 3.98905 12.2341 0.645264 8.06438 0.645264ZM8.06438 12.2675C6.98332 12.2675 5.94654 11.841 5.18212 11.0818C4.4177 10.3225 3.98825 9.29275 3.98825 8.21901C3.98825 7.14528 4.4177 6.11552 5.18212 5.35627C5.94654 4.59702 6.98332 4.17048 8.06438 4.17048C9.14543 4.17048 10.1822 4.59702 10.9466 5.35627C11.7111 6.11552 12.1405 7.14528 12.1405 8.21901C12.1405 9.29275 11.7111 10.3225 10.9466 11.0818C10.1822 11.841 9.14543 12.2675 8.06438 12.2675Z" fill="#4F4F4F"/>
</svg>
