<svg width="20" height="20" viewBox="0 0 20 20" fill="none" xmlns="http://www.w3.org/2000/svg">
<path d="M17.7971 0.481934H2.58972C2.03974 0.481934 1.51227 0.702191 1.12337 1.09425C0.734473 1.48631 0.515991 2.01806 0.515991 2.57252L0.515991 17.9035C0.515991 18.458 0.734473 18.9897 1.12337 19.3818C1.51227 19.7738 2.03974 19.9941 2.58972 19.9941H17.7971C18.3471 19.9941 18.8745 19.7738 19.2634 19.3818C19.6523 18.9897 19.8708 18.458 19.8708 17.9035V2.57252C19.8708 2.01806 19.6523 1.48631 19.2634 1.09425C18.8745 0.702191 18.3471 0.481934 17.7971 0.481934ZM17.089 13.8691L16.441 16.7001C16.408 16.844 16.3277 16.9725 16.2131 17.0645C16.0985 17.1564 15.9563 17.2066 15.8098 17.2066C8.89733 17.2066 3.28097 11.5573 3.28097 4.576C3.28611 4.42968 3.3377 4.28889 3.42815 4.17434C3.5186 4.0598 3.64313 3.97754 3.78342 3.93968L6.5916 3.28637C6.6395 3.27616 6.68824 3.27047 6.73719 3.26938C6.86251 3.27576 6.98385 3.31584 7.08861 3.38546C7.19337 3.45508 7.27774 3.5517 7.33296 3.66529L8.62904 6.71406C8.66078 6.79626 8.67846 6.8833 8.68131 6.97146C8.67076 7.16486 8.58546 7.34639 8.4437 7.47712L6.80675 8.8273C7.7986 10.9466 9.49054 12.6523 11.5927 13.6522L12.932 12.0019C13.0617 11.859 13.2418 11.773 13.4336 11.7624C13.5211 11.7652 13.6074 11.783 13.6889 11.8151L16.7131 13.1217C16.8259 13.1773 16.9218 13.2623 16.9908 13.368C17.0599 13.4736 17.0996 13.596 17.1059 13.7223C17.105 13.7717 17.0993 13.8208 17.089 13.8691Z" fill="#4F4F4F"/>
</svg>
